<svg width="30" height="30" viewBox="0 0 30 30" fill="none" xmlns="http://www.w3.org/2000/svg">
<path d="M28.75 16.2241H1.25C0.559998 16.2241 0 15.6641 0 14.9741C0 14.2841 0.559998 13.7241 1.25 13.7241H28.75C29.44 13.7241 30 14.2841 30 14.9741C30 15.6641 29.44 16.2241 28.75 16.2241Z" fill="black"/>
<path d="M28.75 6.64062H1.25C0.559998 6.64062 0 6.08063 0 5.39062C0 4.70062 0.559998 4.14062 1.25 4.14062H28.75C29.44 4.14062 30 4.70062 30 5.39062C30 6.08063 29.44 6.64062 28.75 6.64062Z" fill="black"/>
<path d="M28.75 25.8071H1.25C0.559998 25.8071 0 25.2471 0 24.5571C0 23.8671 0.559998 23.3071 1.25 23.3071H28.75C29.44 23.3071 30 23.8671 30 24.5571C30 25.2471 29.44 25.8071 28.75 25.8071Z" fill="black"/>
</svg>
